<?xml version="1.0" encoding="UTF-8" standalone="no"?>
<!-- Created with Inkscape (http://www.inkscape.org/) -->

<svg
   xmlns:dc="http://purl.org/dc/elements/1.1/"
   xmlns:cc="http://creativecommons.org/ns#"
   xmlns:rdf="http://www.w3.org/1999/02/22-rdf-syntax-ns#"
   xmlns:svg="http://www.w3.org/2000/svg"
   xmlns="http://www.w3.org/2000/svg"
   xmlns:sodipodi="http://sodipodi.sourceforge.net/DTD/sodipodi-0.dtd"
   xmlns:inkscape="http://www.inkscape.org/namespaces/inkscape"
   id="svg7384"
   sodipodi:docname="document-close-all-symbolic.svg"
   version="1.1"
   inkscape:version="0.91 r13725"
   height="16"
   width="16">
  <metadata
     id="metadata90">
    <rdf:RDF>
      <cc:Work
         rdf:about="">
        <dc:format>image/svg+xml</dc:format>
        <dc:type
           rdf:resource="http://purl.org/dc/dcmitype/StillImage" />
        <dc:title>Gnome Symbolic Icon Theme</dc:title>
      </cc:Work>
    </rdf:RDF>
  </metadata>
  <sodipodi:namedview
     inkscape:cy="11.414604"
     pagecolor="#555753"
     borderopacity="1"
     showborder="true"
     inkscape:bbox-paths="false"
     guidetolerance="10"
     inkscape:object-paths="true"
     inkscape:window-width="1239"
     showguides="true"
     inkscape:object-nodes="true"
     inkscape:snap-bbox="true"
     inkscape:pageshadow="2"
     inkscape:guide-bbox="true"
     inkscape:snap-nodes="true"
     bordercolor="#666666"
     objecttolerance="10"
     id="namedview88"
     showgrid="true"
     inkscape:window-maximized="0"
     inkscape:window-x="119"
     inkscape:snap-global="true"
     inkscape:window-y="24"
     gridtolerance="10"
     inkscape:window-height="660"
     inkscape:snap-others="false"
     inkscape:snap-to-guides="true"
     inkscape:current-layer="layer12"
     inkscape:snap-bbox-midpoints="false"
     inkscape:zoom="45.254834"
     inkscape:cx="11.875757"
     inkscape:snap-grids="true"
     inkscape:pageopacity="1">
    <inkscape:grid
       spacingx="1px"
       spacingy="1px"
       id="grid4866"
       empspacing="2"
       enabled="true"
       type="xygrid"
       snapvisiblegridlinesonly="true"
       visible="true" />
  </sodipodi:namedview>
  <title
     id="title9167">Gnome Symbolic Icon Theme</title>
  <defs
     id="defs7386" />
  <g
     inkscape:label="status"
     transform="translate(-340,-646)"
     inkscape:groupmode="layer"
     id="layer9"
     style="display:inline" />
  <g
     inkscape:label="devices"
     transform="translate(-340,-646)"
     inkscape:groupmode="layer"
     id="layer10" />
  <g
     inkscape:label="apps"
     transform="translate(-340,-646)"
     inkscape:groupmode="layer"
     id="layer11" />
  <g
     inkscape:label="places"
     transform="translate(-340,-646)"
     inkscape:groupmode="layer"
     id="layer13" />
  <g
     inkscape:label="mimetypes"
     transform="translate(-340,-646)"
     inkscape:groupmode="layer"
     id="layer14" />
  <g
     inkscape:label="emblems"
     transform="translate(-340,-646)"
     inkscape:groupmode="layer"
     id="layer15"
     style="display:inline" />
  <g
     inkscape:label="emotes"
     transform="translate(-340,-646)"
     inkscape:groupmode="layer"
     id="g71291"
     style="display:inline" />
  <g
     inkscape:label="categories"
     transform="translate(-340,-646)"
     inkscape:groupmode="layer"
     id="g4953"
     style="display:inline" />
  <g
     inkscape:label="actions"
     transform="translate(-340,-646)"
     inkscape:groupmode="layer"
     id="layer12"
     style="display:inline">
    <path
       style="display:inline;opacity:1;fill:#bebebe;fill-opacity:1;stroke:none"
       d="M 3.2597656 1 C 2.6628656 0.993 2.1098262 1.4546756 2.0351562 2.0722656 C 1.9815562 2.8389156 2.0226656 3.6327338 2.0097656 4.4023438 C 2.0147656 6.8785737 1.9946656 9.3463756 2.0097656 11.822266 C 2.0567656 12.442556 2.5692506 12.97346 3.1816406 13 L 3.6777344 12.994141 L 3.6777344 3.1425781 C 3.6717344 2.9122081 3.8696 2.7092537 4.09375 2.7148438 C 6.06676 2.7218437 10.035503 2.6952438 12.007812 2.7148438 L 12.013672 2.1777344 C 11.965872 1.5264944 11.407149 0.9754 10.761719 1 L 3.2597656 1 z M 5.2578125 3 C 4.6609125 2.993 4.1078731 3.4546756 4.0332031 4.0722656 C 3.9796031 4.8389156 4.0187594 5.6327338 4.0058594 6.4023438 C 4.0108594 8.8785737 3.9907594 11.346376 4.0058594 13.822266 C 4.0528594 14.442556 4.5672975 14.97346 5.1796875 15 C 7.7318675 15.007 10.285661 15.002 12.837891 15 C 13.523231 14.995 14.034306 14.343909 14.009766 13.662109 C 14.004766 10.505549 14.025266 7.3358175 14.009766 4.1796875 C 13.961966 3.5284475 13.405196 2.9754 12.759766 3 L 5.2578125 3 z M 6.0898438 4.7148438 C 8.0628537 4.7218437 10.031596 4.6952438 12.003906 4.7148438 C 12.418376 4.8052438 12.334557 5.30146 12.341797 5.625 L 12.341797 12.857422 C 12.344797 13.281762 11.896291 13.314609 11.587891 13.287109 C 9.7275706 13.280109 7.8712888 13.306709 6.0117188 13.287109 C 5.5971988 13.196809 5.6810481 12.69862 5.6738281 12.375 L 5.6738281 5.1425781 C 5.6678281 4.9122081 5.8656937 4.7092537 6.0898438 4.7148438 z M 7.8417969 6.5957031 C 7.8315969 6.5855031 7.5590119 6.8458306 7.2324219 7.1816406 C 6.9058919 7.5174306 6.6529394 7.7951406 6.6621094 7.8066406 L 7.8222656 9 L 6.6621094 10.193359 C 6.6519094 10.203559 6.9058919 10.482539 7.2324219 10.818359 C 7.5590119 11.154209 7.8306169 11.41564 7.8417969 11.40625 L 9.0019531 10.212891 L 10.162109 11.40625 C 10.172309 11.41645 10.442991 11.154209 10.769531 10.818359 C 11.096091 10.482539 11.352017 10.203889 11.341797 10.193359 L 10.179688 9 L 11.341797 7.8066406 C 11.351997 7.7964406 11.096091 7.5174306 10.769531 7.1816406 C 10.442991 6.8458306 10.172299 6.5852331 10.162109 6.5957031 L 9.0019531 7.7890625 L 7.8417969 6.5957031 z "
       transform="translate(340,646)"
       id="path4102" />
    <path
       id="path3368"
       transform="translate(340,646)"
       d="M 3.2597656 1 C 2.6628656 0.993 2.1098262 1.4546756 2.0351562 2.0722656 C 1.9815562 2.8389156 2.0226656 3.6327338 2.0097656 4.4023438 C 2.0147656 6.8785737 1.9946656 9.3463756 2.0097656 11.822266 C 2.0567656 12.442556 2.5692506 12.97346 3.1816406 13 L 3.6777344 12.994141 L 3.6777344 3.1425781 C 3.6717344 2.9122081 3.8696 2.7092537 4.09375 2.7148438 C 6.06676 2.7218437 10.035503 2.6952438 12.007812 2.7148438 L 12.013672 2.1777344 C 11.965872 1.5264944 11.407149 0.9754 10.761719 1 L 3.2597656 1 z M 5.2578125 3 C 4.6609125 2.993 4.1078731 3.4546756 4.0332031 4.0722656 C 3.9796031 4.8389156 4.0187594 5.6327338 4.0058594 6.4023438 C 4.0108594 8.8785737 3.9907594 11.346376 4.0058594 13.822266 C 4.0528594 14.442556 4.5672975 14.97346 5.1796875 15 C 7.7318675 15.007 10.285661 15.002 12.837891 15 C 13.523231 14.995 14.034306 14.343909 14.009766 13.662109 C 14.004766 10.505549 14.025266 7.3358175 14.009766 4.1796875 C 13.961966 3.5284475 13.405196 2.9754 12.759766 3 L 5.2578125 3 z M 6.0898438 4.7148438 C 8.0628537 4.7218437 10.031596 4.6952438 12.003906 4.7148438 C 12.418376 4.8052438 12.334557 5.30146 12.341797 5.625 L 12.341797 12.857422 C 12.344797 13.281762 11.896291 13.314609 11.587891 13.287109 C 9.7275706 13.280109 7.8712888 13.306709 6.0117188 13.287109 C 5.5971988 13.196809 5.6810481 12.69862 5.6738281 12.375 L 5.6738281 5.1425781 C 5.6678281 4.9122081 5.8656937 4.7092537 6.0898438 4.7148438 z M 7.8417969 6.5957031 C 7.8315969 6.5855031 7.5590119 6.8458306 7.2324219 7.1816406 C 6.9058919 7.5174306 6.6529394 7.7951406 6.6621094 7.8066406 L 7.8222656 9 L 6.6621094 10.193359 C 6.6519094 10.203559 6.9058919 10.482539 7.2324219 10.818359 C 7.5590119 11.154209 7.8306169 11.41564 7.8417969 11.40625 L 9.0019531 10.212891 L 10.162109 11.40625 C 10.172309 11.41645 10.442991 11.154209 10.769531 10.818359 C 11.096091 10.482539 11.352017 10.203889 11.341797 10.193359 L 10.179688 9 L 11.341797 7.8066406 C 11.351997 7.7964406 11.096091 7.5174306 10.769531 7.1816406 C 10.442991 6.8458306 10.172299 6.5852331 10.162109 6.5957031 L 9.0019531 7.7890625 L 7.8417969 6.5957031 z "
       style="display:inline;opacity:1;fill:#bebebe;fill-opacity:1;stroke:none" />
  </g>
</svg>
