<?xml version="1.0" encoding="UTF-8" standalone="no"?>
<!-- Created with Inkscape (http://www.inkscape.org/) -->

<svg
   xmlns:dc="http://purl.org/dc/elements/1.1/"
   xmlns:cc="http://creativecommons.org/ns#"
   xmlns:rdf="http://www.w3.org/1999/02/22-rdf-syntax-ns#"
   xmlns:svg="http://www.w3.org/2000/svg"
   xmlns="http://www.w3.org/2000/svg"
   xmlns:sodipodi="http://sodipodi.sourceforge.net/DTD/sodipodi-0.dtd"
   xmlns:inkscape="http://www.inkscape.org/namespaces/inkscape"
   id="svg7384"
   sodipodi:docname="document-close-symbolic.svg"
   version="1.1"
   inkscape:version="0.91 r13725"
   height="16"
   width="16">
  <metadata
     id="metadata90">
    <rdf:RDF>
      <cc:Work
         rdf:about="">
        <dc:format>image/svg+xml</dc:format>
        <dc:type
           rdf:resource="http://purl.org/dc/dcmitype/StillImage" />
        <dc:title>Gnome Symbolic Icon Theme</dc:title>
      </cc:Work>
    </rdf:RDF>
  </metadata>
  <sodipodi:namedview
     inkscape:cy="10.867401"
     pagecolor="#555753"
     borderopacity="1"
     showborder="true"
     inkscape:bbox-paths="false"
     guidetolerance="10"
     inkscape:object-paths="true"
     inkscape:window-width="1239"
     showguides="true"
     inkscape:object-nodes="true"
     inkscape:snap-bbox="true"
     inkscape:pageshadow="2"
     inkscape:guide-bbox="true"
     inkscape:snap-nodes="true"
     bordercolor="#666666"
     objecttolerance="10"
     id="namedview88"
     showgrid="true"
     inkscape:window-maximized="0"
     inkscape:window-x="119"
     inkscape:snap-global="true"
     inkscape:window-y="24"
     gridtolerance="10"
     inkscape:window-height="660"
     inkscape:snap-others="false"
     inkscape:snap-to-guides="true"
     inkscape:current-layer="layer12"
     inkscape:snap-bbox-midpoints="false"
     inkscape:zoom="32"
     inkscape:cx="8.4633224"
     inkscape:snap-grids="true"
     inkscape:pageopacity="1">
    <inkscape:grid
       spacingx="1px"
       spacingy="1px"
       id="grid4866"
       empspacing="2"
       enabled="true"
       type="xygrid"
       snapvisiblegridlinesonly="true"
       visible="true" />
  </sodipodi:namedview>
  <title
     id="title9167">Gnome Symbolic Icon Theme</title>
  <defs
     id="defs7386" />
  <g
     inkscape:label="status"
     transform="translate(-340,-646)"
     inkscape:groupmode="layer"
     id="layer9"
     style="display:inline" />
  <g
     inkscape:label="devices"
     transform="translate(-340,-646)"
     inkscape:groupmode="layer"
     id="layer10" />
  <g
     inkscape:label="apps"
     transform="translate(-340,-646)"
     inkscape:groupmode="layer"
     id="layer11" />
  <g
     inkscape:label="places"
     transform="translate(-340,-646)"
     inkscape:groupmode="layer"
     id="layer13" />
  <g
     inkscape:label="mimetypes"
     transform="translate(-340,-646)"
     inkscape:groupmode="layer"
     id="layer14" />
  <g
     inkscape:label="emblems"
     transform="translate(-340,-646)"
     inkscape:groupmode="layer"
     id="layer15"
     style="display:inline" />
  <g
     inkscape:label="emotes"
     transform="translate(-340,-646)"
     inkscape:groupmode="layer"
     id="g71291"
     style="display:inline" />
  <g
     inkscape:label="categories"
     transform="translate(-340,-646)"
     inkscape:groupmode="layer"
     id="g4953"
     style="display:inline" />
  <g
     inkscape:label="actions"
     transform="translate(-340,-646)"
     inkscape:groupmode="layer"
     id="layer12"
     style="display:inline">
    <path
       style="display:inline;opacity:1;fill:#bebebe;fill-opacity:1;stroke:none"
       d="m 3.5078125,1 c -0.71602,-0.007 -1.37918,0.52955 -1.46875,1.25 -0.0636,0.8944 -0.01495,1.82091 -0.03125,2.71875 0.005,2.88883 -0.0186,5.76786 0,8.65625 0.057,0.72367 0.67162,1.34406 1.40625,1.375 3.06158,0.007 6.12585,0.002 9.1874995,0 0.822171,-0.005 1.43564,-0.76713 1.40625,-1.5625 -0.005,-3.68243 0.0186,-7.38051 0,-11.0625 -0.0578,-0.75976 -0.725729,-1.40372 -1.5,-1.375 z m 1,2 c 2.36684,0.007 4.72776,-0.0236 7.0937495,0 0.497201,0.10584 0.397581,0.68505 0.40625,1.0625 l 0,8.4375 c 0.003,0.49499 -0.536299,0.53206 -0.90625,0.5 -2.2316195,-0.007 -4.4567295,0.0236 -6.6874995,0 -0.4972,-0.10584 -0.39758,-0.68505 -0.40625,-1.0625 l 0,-8.4375 c -0.006,-0.26876 0.23115,-0.50647 0.5,-0.5 z M 10.12132,5.8786797 C 9.7295832,5.4869425 9.4043583,5.1814282 9.3921165,5.19367 L 8,6.5857864 6.6078835,5.19367 C 6.5956417,5.1814282 6.2704168,5.4869425 5.8786797,5.8786797 5.4869425,6.2704168 5.1826987,6.5944912 5.19367,6.6078835 L 6.5857864,8 5.19367,9.3921165 c -0.012242,0.012242 0.2932725,0.3374667 0.6850097,0.7292035 0.3917371,0.391738 0.7158111,0.695982 0.7292038,0.68501 L 8,9.4142136 9.3921165,10.80633 c 0.012242,0.01224 0.3374667,-0.293272 0.7292035,-0.68501 0.391738,-0.3917368 0.697252,-0.7169614 0.68501,-0.7292035 L 9.4142136,8 10.80633,6.6078835 c 0.01224,-0.012242 -0.293272,-0.3374667 -0.68501,-0.7292038 z"
       transform="translate(340,646)"
       id="path4102"
       inkscape:connector-curvature="0"
       sodipodi:nodetypes="cccccccccccccccccccsscssscssscssscss" />
  </g>
</svg>
